<svg width="70" height="70" viewBox="0 0 70 70" fill="none" xmlns="http://www.w3.org/2000/svg">
<path fill-rule="evenodd" clip-rule="evenodd" d="M34.37 55.5L18.87 69C18.4892 69 18.1407 69.1288 17.7754 69.2639C16.7013 69.6609 15.4818 70.1117 12.8701 67.5C10.0701 64.7 10.3701 60 10.8701 58C10.3701 57.5 8.26996 54.7 3.86996 47.5C-0.530039 40.3 -0.296705 36.5 0.369962 35.5C3.03663 35.3333 9.46996 34.4 13.87 32C19.37 29 17.3701 20 17.3701 20C17.3701 20 15.0777 11.0808 16.3701 11C21.7035 10.6667 33.37 9.8 39.37 9C45.37 8.2 55.87 2.66667 60.37 0C62.0366 0.666667 65.8701 4 67.8701 8C70.3701 13 68.87 18.5 66.87 24.5C64.87 30.5 54.37 42 46.37 44C39.97 45.6 35.7033 52.3333 34.37 55.5ZM24.3704 47.5C22.3704 50.7 17.537 54.5 15.3704 56C14.9704 58 16.537 62.5 17.3704 64.5L19.8704 63C21.8704 62.1667 26.8704 58.9 30.8704 52.5C35.2912 45.4267 36.9759 44.6073 42.1452 42.0933C42.8224 41.7639 43.5595 41.4054 44.3704 41C47.1201 39.6251 48.6354 38.8675 50.0376 37.9391C52.205 36.504 54.1022 34.661 59.8704 29.5C67.4704 22.7 65.3704 12.6667 63.3704 8.5C63.3704 8.66667 62.9704 9.8 61.3704 13C61.1932 13.3542 61.0318 13.681 60.8805 13.9873C59.3233 17.1395 58.839 18.1199 53.3704 24.5C47.3704 31.5 39.8704 35 32.8704 38C27.746 40.1962 26.9088 42.1244 25.8473 44.5692C25.4588 45.4641 25.0402 46.4282 24.3704 47.5Z" fill="black"/>
</svg>
