<svg width="56" height="58" viewBox="0 0 56 58" fill="none" xmlns="http://www.w3.org/2000/svg">
<path fill-rule="evenodd" clip-rule="evenodd" d="M0 28.5665C0 20.9902 2.94999 13.7242 8.20101 8.36694C13.452 3.00968 20.5739 0 28 0C35.4261 0 42.548 3.00968 47.799 8.36694C53.05 13.7242 56 20.9902 56 28.5665C56 36.1428 53.05 43.4088 47.799 48.7661C42.548 54.1234 35.4261 57.133 28 57.133C20.5739 57.133 13.452 54.1234 8.20101 48.7661C2.94999 43.4088 0 36.1428 0 28.5665ZM28 3.57082C23.3862 3.57107 18.8663 4.90045 14.9604 7.40597C11.0545 9.91149 7.92149 13.4913 5.92187 17.7334C3.92226 21.9754 3.13735 26.7073 3.65749 31.3845C4.17764 36.0616 5.98169 40.4938 8.862 44.171C11.347 40.086 16.8175 35.7082 28 35.7082C39.1825 35.7082 44.6495 40.0824 47.138 44.171C50.0183 40.4938 51.8224 36.0616 52.3425 31.3845C52.8626 26.7073 52.0777 21.9754 50.0781 17.7334C48.0785 13.4913 44.9455 9.91149 41.0396 7.40597C37.1337 4.90045 32.6138 3.57107 28 3.57082Z" fill="black"/>
<path d="M39 21.7124C39 24.5536 37.8937 27.2783 35.9246 29.2873C33.9555 31.2963 31.2848 32.4249 28.5 32.4249C25.7152 32.4249 23.0445 31.2963 21.0754 29.2873C19.1062 27.2783 18 24.5536 18 21.7124C18 18.8713 19.1062 16.1466 21.0754 14.1376C23.0445 12.1286 25.7152 11 28.5 11C31.2848 11 33.9555 12.1286 35.9246 14.1376C37.8937 16.1466 39 18.8713 39 21.7124Z" fill="black"/>
</svg>
