<svg width="34" height="30" viewBox="0 0 34 30" fill="none" xmlns="http://www.w3.org/2000/svg">
<path d="M33.3689 27.1761L22.5353 18.0025C24.1995 16.1464 25.0933 13.8817 25.081 11.5036C25.0663 8.65695 23.7526 5.99311 21.3914 3.99023C19.0303 1.98735 15.893 0.892772 12.5663 0.906417C9.23948 0.920061 6.11365 2.04387 3.77327 4.06249C1.42873 6.08112 0.146709 8.75916 0.1614 11.6058C0.176073 14.4489 1.48986 17.1198 3.85098 19.1192C6.21211 21.122 9.34524 22.2166 12.6762 22.203C15.4589 22.1916 18.0963 21.4069 20.2528 19.9712L31.0864 29.1413C31.1182 29.1682 31.1559 29.1895 31.1973 29.204C31.2387 29.2184 31.283 29.2258 31.3278 29.2256C31.3725 29.2254 31.4168 29.2177 31.458 29.2029C31.4993 29.1881 31.5367 29.1665 31.5682 29.1393L33.3711 27.5879C33.4026 27.5607 33.4275 27.5285 33.4444 27.4931C33.4614 27.4577 33.47 27.4198 33.4698 27.3816C33.4696 27.3434 33.4606 27.3055 33.4433 27.2703C33.426 27.235 33.4007 27.203 33.3689 27.1761ZM19.229 17.15C17.4758 18.6586 15.1459 19.4952 12.6622 19.5054C10.1786 19.5156 7.84018 18.6982 6.07145 17.204C4.30685 15.7062 3.32884 13.7154 3.31788 11.5928C3.30693 9.47029 4.26433 7.468 6.01341 5.95939C7.76665 4.45076 10.0965 3.61417 12.5802 3.60398C15.0638 3.59379 17.4064 4.40767 19.171 5.90542C20.9356 7.40317 21.9136 9.39398 21.9245 11.5165C21.9355 13.6391 20.9781 15.6414 19.229 17.15Z" fill="black"/>
</svg>
